<svg xmlns="http://www.w3.org/2000/svg" version="1.1" xmlns:xlink="http://www.w3.org/1999/xlink" xmlns:svgjs="http://svgjs.com/svgjs" width="512" height="512" x="0" y="0" viewBox="0 0 24 24" style="enable-background:new 0 0 512 512" xml:space="preserve" class=""><g><path id="menu-right-alt" d="m21 7h-13a1 1 0 0 1 0-2h13a1 1 0 0 1 0 2zm1 5a1 1 0 0 0 -1-1h-18a1 1 0 0 0 0 2h18a1 1 0 0 0 1-1zm0 6a1 1 0 0 0 -1-1h-9a1 1 0 0 0 0 2h9a1 1 0 0 0 1-1z" fill="#f9f9f9" data-original="#000000" class=""></path></g></svg>